<svg width="120" height="40" viewBox="0 0 120 40" fill="none" xmlns="http://www.w3.org/2000/svg">
  <path d="M20 5C11.7 5 5 11.7 5 20C5 28.3 11.7 35 20 35C28.3 35 35 28.3 35 20C35 11.7 28.3 5 20 5Z" fill="#21759B"/>
  <path d="M20 8C13.4 8 8 13.4 8 20C8 26.6 13.4 32 20 32C26.6 32 32 26.6 32 20C32 13.4 26.6 8 20 8ZM20 29C14.5 29 10 24.5 10 20C10 15.5 14.5 11 20 11C25.5 11 30 15.5 30 20C30 24.5 25.5 29 20 29Z" fill="#21759B"/>
  <text x="40" y="25" font-family="Arial, sans-serif" font-size="14" font-weight="bold" fill="#21759B">WordPress</text>
</svg>
